<svg width="24" height="24" viewBox="0 0 24 24" fill="none" xmlns="http://www.w3.org/2000/svg">
<rect width="24" height="24" rx="12" fill="white" fill-opacity="0.8"/>
<path d="M11.3706 17.4836L11.3699 17.4829C9.64336 15.9174 8.2506 14.6516 7.28362 13.4686C6.32213 12.2923 5.83398 11.259 5.83398 10.1667C5.83398 8.3834 7.22286 7 9.00065 7C10.0095 7 10.986 7.47223 11.6212 8.21231L12.0007 8.65438L12.3801 8.21231C13.0153 7.47223 13.9918 7 15.0007 7C16.7784 7 18.1673 8.3834 18.1673 10.1667C18.1673 11.259 17.6792 12.2923 16.7177 13.4686C15.7507 14.6516 14.3579 15.9174 12.6314 17.4829L12.6307 17.4836L12.0007 18.0572L11.3706 17.4836Z" stroke="#B2B2B2"/>
</svg>
