<svg width="14" height="13" viewBox="0 0 14 13" fill="none" xmlns="http://www.w3.org/2000/svg">
<path d="M6.53659 10.9836L6.53587 10.9829C4.80937 9.41736 3.41661 8.1516 2.44963 6.96857C1.48815 5.79226 1 4.75896 1 3.66667C1 1.8834 2.38888 0.5 4.16667 0.5C5.17551 0.5 6.15206 0.972229 6.78725 1.71231L7.16667 2.15438L7.54608 1.71231C8.18127 0.972229 9.15782 0.5 10.1667 0.5C11.9445 0.5 13.3333 1.8834 13.3333 3.66667C13.3333 4.75896 12.8452 5.79226 11.8837 6.96857C10.9167 8.1516 9.52396 9.41736 7.79746 10.9829L7.79674 10.9836L7.16667 11.5572L6.53659 10.9836Z" stroke="#B2B2B2"/>
</svg>
